<svg aria-hidden="true" style="position: absolute; width: 0; height: 0; overflow: hidden;" version="1.1" xmlns="http://www.w3.org/2000/svg" xmlns:xlink="http://www.w3.org/1999/xlink">
<defs>
<symbol id="icon-behance" viewBox="0 0 32 32">
<path fill="#e5e5e5" style="fill: var(--color1, #e5e5e5)" d="M0 0h32v32h-32v-32z"></path>
<path fill="#fff" style="fill: var(--color2, #fff)" d="M-166.244-3271.805h292.683v3461.463h-292.683v-3461.463z"></path>
<path fill="#000" style="fill: var(--color3, #000); stroke: var(--color3, #000)" stroke="#000" stroke-linejoin="miter" stroke-linecap="butt" stroke-miterlimit="4" stroke-width="0.3902" d="M26.72 0.169h-22.134c-2.529 0-4.586 2.051-4.586 4.573v22.073c0 2.522 2.057 4.573 4.586 4.573h22.134c2.529 0 4.586-2.052 4.586-4.573v-22.073c0-2.522-2.057-4.573-4.586-4.573zM29.472 26.816c0 1.513-1.234 2.744-2.752 2.744h-22.134c-1.517 0-2.752-1.231-2.752-2.744v-22.073c0-1.513 1.234-2.744 2.752-2.744h22.134c1.517 0 2.752 1.231 2.752 2.744v22.073z"></path>
<path fill="#000" style="fill: var(--color3, #000); stroke: var(--color3, #000)" stroke="#000" stroke-linejoin="miter" stroke-linecap="butt" stroke-miterlimit="4" stroke-width="0.3902" d="M14.736 13.035c0-2.017-1.646-3.659-3.669-3.659h-5.503v12.805h5.503c2.023 0 3.669-1.641 3.669-3.659 0-1.092-0.483-2.073-1.246-2.744 0.763-0.671 1.246-1.652 1.246-2.744zM12.902 18.523c0 1.009-0.823 1.829-1.834 1.829h-3.669v-3.659h3.669c1.011 0 1.834 0.821 1.834 1.829zM7.399 14.864v-3.659h3.669c1.011 0 1.834 0.821 1.834 1.829s-0.823 1.829-1.834 1.829h-3.669z"></path>
<path fill="#000" style="fill: var(--color3, #000); stroke: var(--color3, #000)" stroke="#000" stroke-linejoin="miter" stroke-linecap="butt" stroke-miterlimit="4" stroke-width="0.3902" d="M21.156 13.035c-2.529 0-4.586 2.051-4.586 4.573s2.057 4.573 4.586 4.573c1.632 0 3.154-0.876 3.972-2.286l-1.588-0.916c-0.491 0.847-1.405 1.373-2.384 1.373-1.196 0-2.216-0.765-2.594-1.829h7.18v-0.915c0-2.522-2.057-4.573-4.586-4.573zM18.562 16.694c0.379-1.065 1.398-1.829 2.594-1.829s2.216 0.765 2.594 1.829h-5.189z"></path>
<path fill="#000" style="fill: var(--color3, #000); stroke: var(--color3, #000)" stroke="#000" stroke-linejoin="miter" stroke-linecap="butt" stroke-miterlimit="4" stroke-width="0.3902" d="M17.487 9.377h7.337v1.829h-7.337v-1.829z"></path>
</symbol>
<symbol id="icon-ball" viewBox="0 0 32 32">
<path d="M15.643 0c-8.619 0-15.643 7.184-15.643 15.999s7.024 15.999 15.643 15.999c8.619 0 15.643-7.184 15.643-15.999s-7.024-15.999-15.643-15.999zM15.643 2.461c3.144 0 6.017 1.115 8.28 2.984-1.151 1.446-3.264 3.454-6.806 4.769-1.925-3.561-3.535-5.838-4.655-7.346 1.015-0.254 2.083-0.408 3.181-0.408zM10.078 3.731c0.94 1.238 2.64 3.569 4.663 7.215-5.197 1.392-9.89 1.485-11.845 1.423 1.045-3.846 3.693-6.992 7.182-8.638zM25.654 7.154c2.001 2.377 3.226 5.461 3.226 8.846 0 0.508-0.030 1-0.083 1.492-0.436-0.062-0.76-0.115-1.316-0.162-1.865-0.146-4.332-0.146-7.002 0.262-0.699-1.854-1.467-3.569-2.256-5.177 3.715-1.454 6.069-3.6 7.431-5.261zM15.884 13.176c0.76 1.523 1.497 3.154 2.181 4.907-3.166 0.961-6.047 3.154-8.258 5.192-1.181 1.077-2.151 2.108-2.873 2.915-2.775-2.484-4.535-6.115-4.535-10.184 0-0.408 0.030-0.792 0.060-1.185 1.715 0.069 7.197 0.123 13.425-1.646zM23.848 19.714c1.85-0.069 3.309 0.062 4.467 0.192-0.872 3.008-2.745 5.569-5.22 7.292-0.399-2.531-1.015-4.961-1.76-7.253 0.865-0.115 1.715-0.192 2.512-0.231zM18.93 20.391c0.857 2.531 1.534 5.231 1.918 8.061-1.602 0.692-3.354 1.085-5.212 1.085-2.474 0-4.768-0.7-6.746-1.892 0.669-0.731 1.497-1.615 2.52-2.546 2.128-1.954 4.904-3.946 7.521-4.708z"></path>
</symbol>
<symbol id="icon-instagram" viewBox="0 0 32 32">
<path d="M31.969 9.408c-0.075-1.7-0.35-2.869-0.744-3.882-0.406-1.075-1.031-2.038-1.85-2.838-0.8-0.813-1.769-1.444-2.832-1.844-1.019-0.394-2.182-0.669-3.882-0.744-1.713-0.081-2.257-0.1-6.601-0.1s-4.888 0.019-6.595 0.094c-1.7 0.075-2.869 0.35-3.882 0.744-1.075 0.406-2.038 1.031-2.838 1.85-0.813 0.8-1.444 1.769-1.844 2.832-0.394 1.019-0.669 2.182-0.744 3.882-0.081 1.713-0.1 2.257-0.1 6.601s0.019 4.888 0.094 6.595c0.075 1.7 0.35 2.869 0.744 3.882 0.406 1.075 1.038 2.038 1.85 2.838 0.8 0.813 1.769 1.444 2.832 1.844 1.019 0.394 2.182 0.669 3.882 0.744 1.706 0.075 2.25 0.094 6.595 0.094s4.888-0.019 6.595-0.094c1.7-0.075 2.869-0.35 3.882-0.744 2.151-0.831 3.851-2.532 4.682-4.682 0.394-1.019 0.669-2.182 0.744-3.882 0.075-1.707 0.094-2.25 0.094-6.595s-0.006-4.888-0.081-6.595zM29.087 22.473c-0.069 1.563-0.331 2.407-0.55 2.969-0.538 1.394-1.644 2.501-3.038 3.038-0.563 0.219-1.413 0.481-2.969 0.55-1.688 0.075-2.194 0.094-6.464 0.094s-4.782-0.019-6.464-0.094c-1.563-0.069-2.407-0.331-2.969-0.55-0.694-0.256-1.325-0.663-1.838-1.194-0.531-0.519-0.938-1.144-1.194-1.838-0.219-0.563-0.481-1.413-0.55-2.969-0.075-1.688-0.094-2.194-0.094-6.464s0.019-4.782 0.094-6.464c0.069-1.563 0.331-2.407 0.55-2.969 0.256-0.694 0.663-1.325 1.2-1.838 0.519-0.531 1.144-0.938 1.838-1.194 0.563-0.219 1.413-0.481 2.969-0.55 1.688-0.075 2.194-0.094 6.464-0.094 4.276 0 4.782 0.019 6.464 0.094 1.563 0.069 2.407 0.331 2.969 0.55 0.694 0.256 1.325 0.662 1.838 1.194 0.531 0.519 0.938 1.144 1.194 1.838 0.219 0.563 0.481 1.413 0.55 2.969 0.075 1.688 0.094 2.194 0.094 6.464s-0.019 4.77-0.094 6.458z"></path>
<path d="M16.059 7.783c-4.538 0-8.22 3.682-8.22 8.22s3.682 8.22 8.22 8.22c4.539 0 8.22-3.682 8.22-8.22s-3.682-8.22-8.22-8.22zM16.059 21.335c-2.944 0-5.332-2.388-5.332-5.332s2.388-5.332 5.332-5.332c2.944 0 5.332 2.388 5.332 5.332s-2.388 5.332-5.332 5.332z"></path>
<path d="M26.524 7.458c0 1.060-0.859 1.919-1.919 1.919s-1.919-0.859-1.919-1.919c0-1.060 0.859-1.919 1.919-1.919s1.919 0.859 1.919 1.919z"></path>
</symbol>
<symbol id="icon-linkedin" viewBox="0 0 32 32">
<path d="M31.992 32v-0.001h0.008v-11.736c0-5.741-1.236-10.164-7.948-10.164-3.227 0-5.392 1.771-6.276 3.449h-0.093v-2.913h-6.364v21.364h6.627v-10.579c0-2.785 0.528-5.479 3.977-5.479 3.399 0 3.449 3.179 3.449 5.657v10.401h6.62z"></path>
<path d="M0.528 10.636h6.635v21.364h-6.635v-21.364z"></path>
<path d="M3.843 0c-2.121 0-3.843 1.721-3.843 3.843s1.721 3.879 3.843 3.879c2.121 0 3.843-1.757 3.843-3.879-0.001-2.121-1.723-3.843-3.843-3.843v0z"></path>
</symbol>
</defs>
</svg>
