<svg aria-hidden="true" style="position: absolute; width: 0; height: 0; overflow: hidden;" version="1.1" xmlns="http://www.w3.org/2000/svg" xmlns:xlink="http://www.w3.org/1999/xlink">
<defs>
<symbol id="icon-AE" viewBox="0 0 32 32">
<path fill="#000" style="fill: var(--color1, #000)" d="M1.511 1.36h29.397v29.125h-29.397v-29.125z"></path>
<path fill="#d8a1ff" style="fill: var(--color2, #d8a1ff)" d="M1.511 1.36h29.397v29.125h-29.397v-29.125zM0.175 31.846h32.075v-31.846h-32.075v31.846zM22.867 15.351c0.681 0 0.925 0 0.989-0.026 0-0.098 0.026-0.164 0.026-0.229 0-0.733-0.347-2.093-1.734-2.093-1.285 0-1.83 1.145-1.965 2.355h2.685v-0.007zM20.156 17.215c0.026 1.838 0.88 3.074 2.916 3.074 0.79 0 1.471-0.111 2.177-0.419 0.096-0.039 0.161-0.026 0.161 0.098v1.701c0 0.137-0.039 0.203-0.135 0.275-0.707 0.353-1.593 0.517-2.685 0.517-3.526 0-4.849-2.655-4.849-5.605 0-3.211 1.631-5.841 4.502-5.841 2.916 0 3.931 2.492 3.931 4.52 0 0.654-0.038 1.184-0.109 1.445-0.026 0.111-0.064 0.15-0.173 0.177-0.27 0.039-1.053 0.098-2.229 0.098h-3.5v-0.039h-0.006zM12.988 15.828c-0.373-1.511-1.285-4.801-1.619-6.397h-0.026c-0.283 1.589-1.015 4.284-1.561 6.397h3.205zM9.238 18.032l-1.053 4.068c-0.026 0.111-0.064 0.15-0.199 0.15h-1.972c-0.135 0-0.161-0.039-0.135-0.203l3.796-13.513c0.064-0.242 0.109-0.438 0.135-1.118 0-0.098 0.039-0.137 0.109-0.137h2.807c0.096 0 0.135 0.026 0.161 0.137l4.245 14.658c0.026 0.111 0 0.177-0.109 0.177h-2.203c-0.109 0-0.173-0.039-0.199-0.137l-1.098-4.081h-4.284z"></path>
</symbol>
<symbol id="icon-AI" viewBox="0 0 32 32">
<path fill="#000" style="fill: var(--color1, #000)" d="M1.511 1.36h29.397v29.125h-29.397v-29.125z"></path>
<path fill="#ff7f18" style="fill: var(--color3, #ff7f18)" d="M1.511 1.36h29.397v29.125h-29.397v-29.125zM0.175 31.846h32.075v-31.846h-32.075v31.846zM21.184 11.354c0-0.111 0.039-0.164 0.161-0.164h2.1c0.109 0 0.161 0.039 0.161 0.164v10.74c0 0.111-0.026 0.164-0.161 0.164h-2.075c-0.135 0-0.173-0.065-0.173-0.177v-10.727h-0.013zM21.036 8.261c0-0.87 0.604-1.387 1.362-1.387 0.816 0 1.362 0.556 1.362 1.387 0 0.896-0.572 1.387-1.387 1.387-0.771 0.007-1.336-0.484-1.336-1.387zM15.024 15.828c-0.373-1.511-1.259-4.801-1.593-6.397h-0.026c-0.283 1.589-0.989 4.284-1.548 6.397h3.166zM11.312 18.032l-1.053 4.081c-0.026 0.111-0.064 0.137-0.199 0.137h-1.965c-0.135 0-0.161-0.039-0.135-0.203l3.796-13.526c0.064-0.242 0.109-0.464 0.135-1.132 0-0.098 0.039-0.137 0.109-0.137h2.807c0.096 0 0.135 0.026 0.161 0.137l4.252 14.684c0.026 0.111 0 0.177-0.109 0.177h-2.216c-0.109 0-0.173-0.026-0.199-0.124l-1.098-4.094h-4.284z"></path>
</symbol>
<symbol id="icon-PS" viewBox="0 0 32 32">
<path fill="#000" style="fill: var(--color1, #000)" d="M1.335 1.359h29.363v29.071h-29.363v-29.071z"></path>
<path fill="#31c5f0" style="fill: var(--color4, #31c5f0)" d="M1.335 1.359h29.363v29.071h-29.363v-29.071zM0 31.789h32.026v-31.789h-32.026v31.789zM21.597 13.046c-1.053 0-1.412 0.542-1.412 0.993 0 0.49 0.237 0.83 1.656 1.574 2.092 1.032 2.747 2.025 2.747 3.476 0 2.175-1.63 3.345-3.832 3.345-1.162 0-2.163-0.242-2.734-0.581-0.096-0.039-0.109-0.111-0.109-0.216v-2.006c0-0.137 0.064-0.176 0.16-0.111 0.841 0.555 1.803 0.804 2.683 0.804 1.053 0 1.495-0.451 1.495-1.058 0-0.49-0.308-0.921-1.656-1.633-1.893-0.921-2.683-1.855-2.683-3.423 0-1.751 1.348-3.208 3.684-3.208 1.149 0 1.951 0.176 2.388 0.379 0.109 0.065 0.135 0.176 0.135 0.274v1.862c0 0.111-0.064 0.176-0.199 0.137-0.59-0.379-1.457-0.608-2.323-0.608zM10.121 14.66c0.308 0.026 0.546 0.026 1.078 0.026 1.56 0 3.029-0.555 3.029-2.718 0-1.725-1.053-2.594-2.83-2.594-0.533 0-1.040 0.026-1.284 0.039l0.006 5.246zM7.74 7.447c0-0.098 0.186-0.163 0.295-0.163 0.854-0.039 2.124-0.065 3.44-0.065 3.697 0 5.141 2.064 5.141 4.697 0 3.449-2.458 4.932-5.475 4.932-0.507 0-0.68-0.026-1.040-0.026v5.213c0 0.111-0.039 0.163-0.16 0.163h-2.041c-0.109 0-0.16-0.039-0.16-0.163v-14.588z"></path>
</symbol>
<symbol id="icon-Figma" viewBox="0 0 21 32">
<path fill="#0acf83" style="fill: var(--color5, #0acf83)" d="M5.41 31.997c2.89 0 5.235-2.387 5.235-5.331v-5.331h-5.235c-2.89 0-5.235 2.387-5.235 5.331s2.344 5.331 5.235 5.331z"></path>
<path fill="#a259ff" style="fill: var(--color6, #a259ff)" d="M0.175 15.998c0-2.943 2.344-5.331 5.235-5.331h5.235v10.668h-5.235c-2.89-0.007-5.235-2.394-5.235-5.337z"></path>
<path fill="#f24e1e" style="fill: var(--color7, #f24e1e)" d="M0.175 5.331c0-2.943 2.344-5.331 5.235-5.331h5.235v10.668h-5.235c-2.89 0-5.235-2.394-5.235-5.337z"></path>
<path fill="#ff7262" style="fill: var(--color8, #ff7262)" d="M10.651 0h5.235c2.89 0 5.235 2.387 5.235 5.331s-2.344 5.331-5.235 5.331h-5.235v-10.661z"></path>
<path fill="#1abcfe" style="fill: var(--color9, #1abcfe)" d="M21.12 15.998c0 2.943-2.344 5.331-5.235 5.331s-5.235-2.387-5.235-5.331c0-2.943 2.344-5.331 5.235-5.331s5.235 2.387 5.235 5.331z"></path>
</symbol>
</defs>
</svg>
